<?xml version="1.0" standalone="no"?>
<!DOCTYPE svg PUBLIC "-//W3C//DTD SVG 20010904//EN"
 "http://www.w3.org/TR/2001/REC-SVG-20010904/DTD/svg10.dtd">
<svg version="1.0" xmlns="http://www.w3.org/2000/svg"
 width="64.000000pt" height="64.000000pt" viewBox="0 0 64.000000 64.000000"
 preserveAspectRatio="xMidYMid meet">

<g transform="translate(0.000000,64.000000) scale(0.100000,-0.100000)"
fill="#000000" stroke="none">
<path d="M248 586 c-139 -37 -227 -180 -198 -320 40 -192 260 -283 423 -175
198 131 145 436 -85 496 -62 16 -79 16 -140 -1z m157 -23 c96 -32 175 -143
175 -243 0 -134 -126 -260 -260 -260 -88 0 -191 63 -232 143 -28 56 -36 157
-14 179 9 9 11 18 6 20 -16 5 44 92 84 123 72 55 154 68 241 38z"/>
<path d="M250 459 c0 -5 5 -7 10 -4 6 3 10 8 10 11 0 2 -4 4 -10 4 -5 0 -10
-5 -10 -11z"/>
<path d="M345 443 c17 -3 42 -18 57 -34 16 -17 37 -29 52 -29 14 0 28 -4 31
-10 3 -5 17 -10 31 -10 15 0 24 -6 24 -15 0 -13 -31 -15 -216 -15 l-215 0 15
22 c9 12 13 32 10 44 -5 19 -1 23 23 27 27 4 26 4 -5 6 -31 1 -33 -1 -31 -26
2 -16 -5 -45 -16 -66 -18 -35 -18 -38 -2 -54 11 -11 17 -13 17 -5 0 7 -4 12
-10 12 -5 0 -10 7 -10 15 0 13 31 15 220 15 140 0 220 -4 220 -10 0 -13 -37
-50 -49 -50 -6 0 -13 -4 -16 -10 -11 -17 29 2 53 26 33 32 28 88 -8 92 -14 2
-29 8 -34 13 -6 5 -18 9 -28 9 -10 0 -32 14 -48 30 -22 22 -38 30 -62 29 l-33
-2 30 -4z"/>
<path d="M265 430 l-30 -8 32 -1 c17 0 35 4 38 9 7 11 3 11 -40 0z"/>
<path d="M198 423 c6 -2 18 -2 25 0 6 3 1 5 -13 5 -14 0 -19 -2 -12 -5z"/>
<path d="M208 289 c-3 -8 -20 -13 -43 -13 -31 0 -34 -2 -17 -9 14 -6 30 -5 52
6 52 27 88 2 64 -44 -18 -35 -18 -36 2 -43 14 -5 15 -4 5 8 -10 12 -8 19 7 34
18 18 18 21 3 40 -20 26 -67 39 -73 21z"/>
<path d="M322 226 c-5 -6 -12 -18 -16 -26 -4 -8 1 -4 10 8 l18 24 30 -37 31
-37 43 14 c30 9 42 18 42 32 0 13 -5 17 -20 13 -21 -5 -28 7 -10 16 6 3 5 4
-2 3 -20 -4 -15 -31 5 -28 30 5 18 -14 -18 -27 -30 -10 -37 -10 -51 3 -8 9
-13 19 -10 24 8 13 -42 31 -52 18z"/>
<path d="M350 100 c0 -5 5 -10 10 -10 6 0 10 5 10 10 0 6 -4 10 -10 10 -5 0
-10 -4 -10 -10z"/>
</g>
</svg>
