<?xml version="1.0" standalone="no"?>
<!DOCTYPE svg PUBLIC "-//W3C//DTD SVG 20010904//EN"
 "http://www.w3.org/TR/2001/REC-SVG-20010904/DTD/svg10.dtd">
<svg version="1.0" xmlns="http://www.w3.org/2000/svg"
 width="512.000000pt" height="512.000000pt" viewBox="0 0 512.000000 512.000000"
 preserveAspectRatio="xMidYMid meet">

<g transform="translate(0.000000,512.000000) scale(0.100000,-0.100000)"
fill="#000000" stroke="none">
<path d="M2489 4683 c-110 -121 -204 -294 -230 -423 -16 -82 -6 -238 20 -320
41 -126 91 -333 116 -477 33 -192 50 -503 37 -655 -17 -181 -47 -252 -206
-484 -34 -51 -91 -144 -126 -208 -42 -77 -70 -116 -81 -116 -29 0 -113 64
-131 100 -20 40 -24 130 -7 163 31 59 85 97 161 111 55 10 98 64 98 122 0 44
-73 653 -106 879 -47 325 -220 605 -481 778 -134 89 -196 104 -260 62 -55 -37
-53 32 -53 -1487 0 -1316 1 -1405 18 -1438 33 -67 48 -70 402 -70 l315 0 35
-97 c70 -195 212 -412 385 -590 l110 -113 54 0 c53 0 54 0 133 78 188 182 371
462 434 664 l18 58 315 0 c355 0 370 3 403 70 17 33 18 123 18 1443 0 1548 4
1459 -61 1492 -61 32 -170 -1 -293 -89 -179 -128 -355 -394 -411 -623 -23 -93
-136 -929 -137 -1021 -1 -57 26 -93 83 -111 122 -38 169 -78 187 -158 19 -82
-9 -154 -76 -197 -74 -48 -74 -48 -138 66 -74 132 -137 234 -206 329 -62 87
-91 150 -119 256 -16 65 -19 111 -19 304 0 322 34 556 129 888 52 184 52 182
52 276 0 102 -20 185 -71 290 -61 127 -201 305 -240 305 -10 0 -42 -26 -71
-57z m136 -130 c112 -149 174 -322 160 -445 -3 -32 -25 -126 -49 -210 -97
-340 -126 -529 -133 -864 -5 -211 -3 -264 12 -335 25 -124 68 -218 170 -369
51 -74 127 -198 170 -275 43 -77 83 -143 89 -147 56 -39 234 62 277 157 22 48
25 162 5 218 -30 84 -101 146 -194 170 -28 7 -56 17 -61 23 -9 9 95 862 120
982 41 202 191 448 354 583 72 60 175 111 213 107 l27 -3 3 -1404 c1 -1029 -1
-1407 -9 -1417 -9 -11 -76 -14 -343 -14 -251 0 -336 -3 -348 -12 -8 -7 -30
-55 -47 -107 -40 -117 -91 -219 -168 -336 -98 -148 -280 -355 -313 -355 -17 0
-99 80 -178 175 -143 170 -255 365 -312 540 -12 39 -27 76 -33 83 -7 9 -89 12
-347 12 -272 0 -340 3 -349 14 -8 10 -10 386 -9 1411 3 1302 4 1399 20 1409
53 33 324 -180 427 -336 61 -91 106 -190 136 -293 31 -109 148 -1010 134
-1036 -5 -9 -25 -20 -46 -24 -20 -4 -55 -16 -78 -27 -90 -45 -135 -115 -143
-221 -6 -82 14 -142 66 -199 44 -49 141 -99 195 -101 l41 -2 66 120 c74 134
156 265 230 370 28 39 63 105 80 147 54 139 60 182 60 438 0 333 -33 560 -126
888 -53 185 -54 190 -55 273 0 88 13 150 52 238 37 81 149 248 170 250 3 1 32
-34 64 -76z"/>
<path d="M1463 3928 c-14 -17 -25 -1618 -11 -1641 7 -14 26 -17 108 -17 l100
0 35 73 c39 83 106 153 179 189 25 12 48 29 51 38 9 28 -103 851 -126 925 -43
142 -115 261 -226 379 -62 65 -91 79 -110 54z m177 -288 c72 -120 87 -189 144
-625 l52 -399 -59 -40 c-64 -43 -122 -110 -157 -180 -20 -41 -25 -46 -56 -46
l-34 0 0 688 c0 378 3 698 7 711 l6 25 29 -35 c16 -19 47 -63 68 -99z"/>
<path d="M3566 3890 c-118 -109 -218 -281 -255 -441 -11 -46 -43 -261 -72
-476 -41 -312 -49 -396 -40 -407 7 -8 36 -28 64 -45 68 -38 119 -93 152 -161
14 -30 30 -62 34 -70 6 -12 30 -15 112 -15 l104 0 6 290 c3 160 7 527 8 817 1
467 -1 528 -15 542 -24 25 -38 20 -98 -34z m19 -1527 c-2 -7 -18 -13 -35 -13
-26 0 -33 7 -56 53 -38 75 -84 128 -151 173 -32 21 -59 39 -60 39 -1 1 22 181
51 400 66 494 87 563 209 718 l42 52 3 -705 c1 -388 0 -711 -3 -717z"/>
<path d="M2499 2343 c-63 -68 -133 -161 -195 -259 -67 -108 -65 -120 34 -150
72 -22 154 -67 187 -104 10 -11 24 -20 31 -20 7 0 43 22 79 50 58 44 119 70
189 82 26 4 40 30 33 59 -9 33 -131 218 -206 312 -76 94 -90 96 -152 30z m176
-213 c36 -52 65 -100 65 -105 0 -6 -17 -17 -37 -24 -21 -7 -62 -28 -90 -47
l-53 -34 -60 39 c-34 22 -74 43 -90 46 -17 4 -32 10 -35 14 -5 10 79 133 143
209 l45 54 23 -29 c13 -15 53 -71 89 -123z"/>
<path d="M1469 2098 c-15 -11 -17 -52 -22 -325 -4 -248 -2 -316 8 -330 12 -16
36 -18 249 -21 226 -3 236 -2 255 17 17 17 21 34 21 82 0 33 5 103 11 155 13
108 10 114 -53 133 -101 31 -211 129 -244 218 -9 27 -22 53 -28 60 -17 18
-177 28 -197 11z m158 -135 c38 -78 132 -170 212 -208 l63 -30 -7 -100 c-4
-55 -10 -103 -14 -108 -4 -4 -84 -6 -177 -5 l-169 3 -3 230 c-1 127 0 240 3
253 4 17 13 22 35 22 26 0 33 -7 57 -57z"/>
<path d="M3472 2104 c-7 -3 -26 -34 -41 -69 -49 -107 -133 -184 -238 -219 -72
-24 -75 -29 -63 -117 5 -41 10 -112 10 -160 0 -52 5 -90 12 -97 15 -15 504
-17 513 -2 3 5 8 148 12 317 4 251 3 311 -8 325 -10 12 -37 18 -99 22 -47 3
-91 3 -98 0z m116 -336 l-3 -253 -177 -3 -178 -2 0 33 c0 19 -3 68 -6 109 l-7
75 67 31 c82 38 169 123 211 204 27 53 33 58 63 58 l32 0 -2 -252z"/>
<path d="M2182 1781 c-18 -11 -39 -113 -48 -227 -6 -85 -5 -93 15 -113 19 -19
32 -21 154 -21 177 0 181 3 175 115 -5 93 -33 155 -91 199 -61 46 -168 71
-205 47z m127 -102 c50 -28 73 -64 79 -121 l5 -49 -84 3 -84 3 2 50 c3 90 13
135 30 135 8 0 32 -9 52 -21z"/>
<path d="M2807 1776 c-55 -20 -103 -61 -134 -113 -21 -36 -27 -62 -31 -124 -3
-54 -1 -84 8 -94 10 -12 41 -15 167 -15 137 0 154 2 161 18 19 47 -4 297 -30
330 -14 16 -93 15 -141 -2z m78 -108 c3 -18 7 -60 8 -93 l2 -60 -82 -3 -83 -3
0 39 c0 46 31 97 79 129 48 33 69 30 76 -9z"/>
<path d="M2205 1254 c-21 -22 -15 -44 40 -159 79 -164 272 -425 313 -425 47 0
227 240 323 428 56 112 62 148 23 162 -14 6 -165 10 -354 10 -291 0 -330 -2
-345 -16z m615 -82 c0 -32 -216 -356 -253 -379 -21 -13 -166 186 -233 319
l-34 68 260 0 c143 0 260 -4 260 -8z"/>
</g>
</svg>
