<svg width="48" height="48" viewBox="0 0 48 48" fill="none" xmlns="http://www.w3.org/2000/svg">
<circle cx="24" cy="24" r="23.25" stroke="#5FC6C1" stroke-width="1.5"/>
<g clip-path="url(#clip0_4725_400)">
<path d="M28.5 12H19.5C15.3585 12 12 15.3585 12 19.5V28.5C12 32.6415 15.3585 36 19.5 36H28.5C32.6415 36 36 32.6415 36 28.5V19.5C36 15.3585 32.6415 12 28.5 12ZM33.75 28.5C33.75 31.395 31.395 33.75 28.5 33.75H19.5C16.605 33.75 14.25 31.395 14.25 28.5V19.5C14.25 16.605 16.605 14.25 19.5 14.25H28.5C31.395 14.25 33.75 16.605 33.75 19.5V28.5Z" fill="#269E96"/>
<path d="M23.9996 18.0002C20.6861 18.0002 17.9996 20.6867 17.9996 24.0002C17.9996 27.3137 20.6861 30.0002 23.9996 30.0002C27.3131 30.0002 29.9996 27.3137 29.9996 24.0002C29.9996 20.6867 27.3131 18.0002 23.9996 18.0002ZM23.9996 27.7502C21.9326 27.7502 20.2496 26.0672 20.2496 24.0002C20.2496 21.9317 21.9326 20.2502 23.9996 20.2502C26.0666 20.2502 27.7496 21.9317 27.7496 24.0002C27.7496 26.0672 26.0666 27.7502 23.9996 27.7502Z" fill="#269E96"/>
<path d="M30.6466 18.3254C31.0746 18.2167 31.3334 17.7817 31.2247 17.3537C31.1161 16.9258 30.681 16.6669 30.2531 16.7756C29.8251 16.8843 29.5663 17.3193 29.6749 17.7473C29.7836 18.1753 30.2187 18.4341 30.6466 18.3254Z" fill="#269E96"/>
</g>
<defs>
<clipPath id="clip0_4725_400">
<rect width="24" height="24" fill="white" transform="translate(12 12)"/>
</clipPath>
</defs>
</svg>
