<svg width="48" height="48" viewBox="0 0 48 48" fill="none" xmlns="http://www.w3.org/2000/svg">
<circle cx="24" cy="24" r="23.25" stroke="#5FC6C1" stroke-width="1.5"/>
<path d="M19.8193 33.0107C28.3103 33.0107 32.9536 25.9762 32.9536 19.8764C32.9536 19.6766 32.9495 19.4776 32.9406 19.2797C33.8418 18.6281 34.6252 17.8149 35.2433 16.8893C34.4162 17.2571 33.5259 17.5043 32.5923 17.6162C33.5453 17.0445 34.2771 16.1405 34.6221 15.0628C33.7302 15.5916 32.7424 15.9758 31.6909 16.1833C30.8485 15.286 29.6491 14.7249 28.3211 14.7249C25.772 14.7249 23.7046 16.7921 23.7046 19.3404C23.7046 19.7029 23.7452 20.0551 23.8243 20.393C19.9877 20.2 16.5854 18.3632 14.3089 15.57C13.9126 16.252 13.6839 17.0446 13.6839 17.8903C13.6839 19.4916 14.4989 20.9057 15.7381 21.7327C14.9808 21.7094 14.2694 21.5015 13.6475 21.1555C13.6468 21.1749 13.6468 21.1937 13.6468 21.2144C13.6468 23.4501 15.2379 25.3167 17.3505 25.7397C16.9625 25.8452 16.5542 25.902 16.1332 25.902C15.8362 25.902 15.5467 25.8729 15.2655 25.8188C15.8531 27.653 17.5574 28.9877 19.5779 29.0251C17.9979 30.2635 16.0075 31.0011 13.8444 31.0011C13.4723 31.0011 13.1045 30.9798 12.7432 30.9372C14.7862 32.2467 17.2122 33.0109 19.8194 33.0109" fill="#269E96"/>
</svg>
